<svg id="svg" xmlns="http://www.w3.org/2000/svg" xmlns:xlink="http://www.w3.org/1999/xlink" width="400" height="400" viewBox="0, 0, 400,400" version="1.1"><g id="svgg"><path id="path0" d="M196.337 12.784 C 191.383 13.686,187.144 17.656,182.921 25.349 C 175.893 38.151,160.800 68.374,160.800 69.644 C 160.800 69.953,160.350 71.052,159.800 72.085 C 159.250 73.118,158.800 74.204,158.800 74.497 C 158.800 74.791,158.432 75.744,157.982 76.615 C 157.533 77.487,156.975 79.100,156.743 80.200 C 156.510 81.300,156.072 82.593,155.768 83.074 C 153.906 86.021,153.863 103.778,155.708 107.748 C 156.309 109.040,156.800 110.301,156.800 110.552 C 156.800 112.027,161.223 118.785,164.481 122.287 C 167.186 125.194,167.058 124.718,165.800 127.200 C 165.250 128.285,164.800 129.455,164.800 129.799 C 164.800 130.143,164.305 131.544,163.700 132.912 L 162.600 135.400 162.400 161.200 L 162.200 187.000 131.200 187.200 C 108.938 187.344,99.862 187.532,99.000 187.867 C 98.340 188.124,96.271 188.447,94.401 188.585 C 92.026 188.760,90.377 189.131,88.926 189.818 C 87.784 190.358,86.539 190.800,86.159 190.800 C 80.992 190.800,65.342 204.094,60.967 212.200 C 58.452 216.860,56.939 220.308,56.629 222.083 C 56.487 222.898,55.972 224.428,55.485 225.483 L 54.600 227.400 54.491 290.867 L 54.381 354.334 43.285 354.467 L 32.190 354.600 29.195 356.318 C 17.314 363.133,17.884 379.816,30.210 386.000 L 33.000 387.400 200.200 387.400 L 367.400 387.400 370.200 385.836 C 381.961 379.265,382.703 363.278,371.555 356.637 C 368.165 354.618,366.589 354.400,355.354 354.400 L 345.617 354.400 345.508 290.700 L 345.400 227.000 344.549 225.382 C 344.081 224.491,343.563 222.961,343.399 221.982 C 342.845 218.685,339.112 211.713,335.142 206.559 C 327.966 197.242,314.817 189.261,305.519 188.578 C 303.693 188.444,301.660 188.124,301.000 187.867 C 300.138 187.532,291.062 187.344,268.800 187.200 L 237.800 187.000 237.600 161.000 C 237.402 135.219,237.393 134.986,236.525 133.335 C 236.043 132.419,235.524 130.979,235.371 130.135 C 235.218 129.291,234.650 127.836,234.109 126.901 L 233.126 125.203 235.696 122.301 C 238.926 118.655,243.200 112.107,243.200 110.803 C 243.200 110.514,243.695 109.270,244.300 108.039 L 245.400 105.800 245.400 95.600 C 245.400 85.927,245.355 85.307,244.526 83.600 C 244.045 82.610,243.526 81.080,243.371 80.200 C 243.217 79.320,242.665 77.751,242.145 76.713 C 241.625 75.676,241.194 74.596,241.187 74.313 C 241.181 74.031,240.732 72.900,240.191 71.800 C 239.650 70.700,239.206 69.557,239.204 69.259 C 239.202 68.961,238.764 67.881,238.231 66.859 C 237.698 65.837,236.232 62.840,234.974 60.200 C 229.454 48.618,219.138 28.499,215.582 22.382 C 211.276 14.974,204.065 11.378,196.337 12.784 M205.818 77.700 C 206.358 78.745,206.800 79.827,206.800 80.103 C 206.800 80.380,207.250 81.452,207.800 82.485 C 208.350 83.518,208.800 84.579,208.800 84.842 C 208.800 85.105,209.230 86.238,209.756 87.360 C 214.304 97.061,213.211 99.759,203.192 103.562 C 199.988 104.778,198.538 104.560,193.200 102.059 C 189.068 100.122,185.767 94.380,187.995 93.003 C 188.212 92.869,188.684 91.747,189.044 90.509 C 189.404 89.271,190.035 87.705,190.447 87.029 C 190.860 86.353,191.198 85.533,191.199 85.206 C 191.199 84.879,191.666 83.619,192.236 82.406 C 192.805 81.193,193.591 79.480,193.981 78.600 C 196.023 73.998,199.611 66.523,199.933 66.201 C 200.058 66.076,201.212 68.185,202.497 70.887 C 203.783 73.589,205.277 76.655,205.818 77.700 M201.878 138.200 C 204.501 140.037,204.417 139.137,204.303 164.253 L 204.200 187.000 200.000 187.000 L 195.800 187.000 195.697 164.487 C 195.605 144.470,195.665 141.835,196.235 140.732 C 197.692 137.915,199.996 136.881,201.878 138.200 M303.127 222.818 C 306.444 224.679,308.966 227.214,310.241 229.969 C 310.809 231.196,311.527 232.678,311.837 233.262 C 312.652 234.798,312.670 265.830,311.857 267.011 C 311.558 267.445,311.091 268.484,310.819 269.321 C 310.133 271.429,306.691 274.773,303.800 276.140 C 302.480 276.765,300.860 277.570,300.200 277.930 C 298.150 279.048,285.141 278.859,283.006 277.680 C 282.129 277.196,281.155 276.800,280.841 276.800 C 276.958 276.800,271.837 269.785,271.471 263.964 C 271.066 257.515,268.555 252.119,264.606 249.208 C 261.677 247.049,261.285 246.894,257.458 246.385 C 245.649 244.814,239.359 249.932,237.040 263.000 C 236.448 266.332,236.138 266.954,234.132 268.837 C 231.361 271.437,226.220 274.425,223.481 275.026 C 222.783 275.179,221.849 275.541,221.406 275.829 C 220.963 276.117,219.610 276.477,218.400 276.631 C 217.190 276.784,215.210 277.275,214.000 277.722 C 210.857 278.884,191.804 278.988,189.670 277.855 C 188.938 277.466,187.332 276.984,186.101 276.784 C 183.812 276.411,181.035 275.457,177.291 273.757 C 176.131 273.231,174.961 272.798,174.691 272.795 C 174.421 272.792,172.749 271.847,170.975 270.695 C 165.418 267.086,163.771 265.362,163.001 262.348 C 159.749 249.625,156.300 246.429,145.800 246.412 C 138.487 246.400,133.169 249.197,131.242 254.070 C 131.040 254.582,130.478 255.979,129.994 257.175 C 129.428 258.573,128.981 260.886,128.744 263.648 C 128.307 268.736,127.489 270.526,124.250 273.482 C 122.158 275.391,121.359 275.867,117.232 277.659 C 114.720 278.750,101.507 279.085,100.306 278.088 C 99.990 277.826,99.017 277.359,98.145 277.051 C 93.741 275.497,90.928 272.828,88.840 268.223 L 87.600 265.489 87.600 250.155 C 87.600 233.393,87.423 234.942,89.947 229.626 C 91.813 225.696,97.356 221.750,101.400 221.473 C 102.500 221.397,147.770 221.350,202.000 221.368 L 300.600 221.400 303.127 222.818 M152.356 298.528 C 153.810 299.698,155.540 300.925,156.200 301.254 C 156.860 301.583,157.760 302.049,158.200 302.289 C 159.234 302.851,163.537 304.823,166.600 306.136 C 167.920 306.703,169.630 307.287,170.400 307.436 C 171.170 307.585,172.409 308.033,173.153 308.431 C 173.897 308.830,175.517 309.268,176.753 309.406 C 177.989 309.544,179.890 310.025,180.978 310.473 C 182.424 311.070,184.363 311.369,188.178 311.585 C 191.050 311.747,193.907 312.087,194.526 312.340 C 196.197 313.022,205.046 312.929,207.436 312.204 C 208.572 311.860,211.002 311.606,213.200 311.601 C 217.344 311.593,221.887 310.991,222.663 310.348 C 222.933 310.124,224.469 309.763,226.077 309.546 C 227.684 309.329,229.637 308.825,230.416 308.426 C 231.195 308.027,232.455 307.580,233.216 307.433 C 236.472 306.804,246.114 302.067,249.265 299.548 C 251.742 297.568,252.091 297.521,253.273 299.010 C 253.643 299.476,255.713 301.020,257.873 302.441 C 262.665 305.592,263.341 305.973,267.600 307.932 C 269.030 308.589,270.920 309.261,271.800 309.425 C 272.680 309.588,274.052 310.061,274.849 310.475 C 275.874 311.007,277.696 311.325,281.074 311.560 C 283.701 311.742,286.232 312.096,286.699 312.346 C 287.884 312.980,293.856 312.913,296.227 312.239 C 297.312 311.931,300.132 311.591,302.494 311.483 C 305.675 311.338,307.179 311.085,308.294 310.508 C 309.122 310.080,310.385 309.615,311.100 309.475 L 312.400 309.220 312.400 331.810 L 312.400 354.400 200.000 354.400 L 87.600 354.400 87.600 331.768 L 87.600 309.136 88.900 309.417 C 89.615 309.571,90.909 310.057,91.776 310.496 C 92.947 311.089,94.437 311.343,97.576 311.486 C 99.899 311.592,102.688 311.931,103.773 312.239 C 106.318 312.963,111.761 312.959,114.029 312.232 C 115.003 311.920,117.563 311.574,119.718 311.463 C 122.493 311.321,124.069 311.037,125.118 310.492 C 125.933 310.069,127.320 309.602,128.200 309.455 C 129.747 309.196,131.537 308.437,136.600 305.893 C 140.137 304.115,146.178 299.813,147.685 297.998 C 149.339 296.006,149.203 295.991,152.356 298.528 " stroke="none" fill="#04444c" fill-rule="evenodd"></path><path id="path1" d="" stroke="none" fill="#08444c" fill-rule="evenodd"></path><path id="path2" d="" stroke="none" fill="#08444c" fill-rule="evenodd"></path><path id="path3" d="" stroke="none" fill="#08444c" fill-rule="evenodd"></path><path id="path4" d="" stroke="none" fill="#08444c" fill-rule="evenodd"></path></g></svg>