<svg id="svg" xmlns="http://www.w3.org/2000/svg" xmlns:xlink="http://www.w3.org/1999/xlink" version="1.1" viewBox="92.12 82.55 197.53 235.45"><g id="svgg"><path id="path0" d="M198.400 83.328 C 198.290 83.437,196.130 83.731,193.600 83.981 C 172.439 86.075,147.638 96.626,132.939 109.787 C 126.216 115.807,121.649 120.385,117.566 125.200 C 111.345 132.537,101.112 149.647,99.212 155.889 C 99.026 156.500,98.122 159.070,97.202 161.600 C 96.282 164.130,95.261 167.280,94.933 168.600 C 92.749 177.382,92.701 178.000,94.194 178.000 C 94.741 178.000,95.956 178.178,96.894 178.396 C 97.832 178.613,101.120 179.252,104.200 179.816 C 107.280 180.379,110.790 181.091,112.000 181.397 C 113.210 181.704,115.370 182.161,116.800 182.413 C 118.230 182.665,120.750 183.130,122.400 183.447 C 124.050 183.764,126.390 184.206,127.600 184.430 C 128.810 184.654,130.970 185.090,132.400 185.399 C 136.641 186.315,141.799 187.318,150.907 188.998 C 151.797 189.163,152.800 188.188,152.800 187.159 C 152.800 185.799,155.235 179.015,157.092 175.200 C 160.484 168.231,167.272 159.925,172.900 155.855 C 173.835 155.179,174.690 154.512,174.800 154.373 C 175.475 153.518,182.554 149.644,186.200 148.132 C 196.046 144.051,209.533 142.915,218.600 145.403 C 219.700 145.704,221.410 146.166,222.400 146.428 C 226.893 147.616,232.240 150.110,237.710 153.570 C 240.103 155.084,240.506 155.221,241.159 154.742 C 242.972 153.412,246.786 150.489,248.800 148.885 C 251.728 146.553,251.250 146.927,259.154 140.795 C 262.978 137.828,266.938 134.786,267.954 134.035 C 268.969 133.284,269.890 132.552,270.000 132.407 C 270.110 132.262,271.190 131.403,272.400 130.498 C 273.610 129.593,276.580 127.301,279.000 125.404 C 281.420 123.508,284.390 121.210,285.600 120.298 C 289.822 117.116,290.190 118.027,281.640 110.482 C 275.194 104.794,263.840 97.592,255.000 93.584 C 249.799 91.226,244.310 89.191,239.400 87.798 C 238.080 87.424,236.550 86.961,236.000 86.770 C 233.882 86.033,226.832 84.726,220.800 83.951 C 217.262 83.496,198.750 82.982,198.400 83.328 M149.600 211.869 C 147.467 212.211,141.619 213.313,137.800 214.091 C 133.377 214.993,133.008 215.065,125.000 216.570 C 117.056 218.064,113.664 218.726,111.600 219.188 C 108.745 219.827,102.010 221.106,96.004 222.149 C 92.991 222.672,92.837 222.944,93.610 226.380 C 98.489 248.080,109.395 267.739,125.444 283.760 C 129.224 287.535,134.004 291.652,137.800 294.404 C 139.120 295.361,140.290 296.265,140.400 296.412 C 140.510 296.559,140.780 296.752,141.000 296.840 C 141.220 296.929,142.660 297.831,144.200 298.845 C 148.623 301.759,156.876 306.132,162.200 308.384 C 165.213 309.658,168.705 310.907,171.800 311.818 C 173.780 312.400,175.783 313.026,176.251 313.207 C 178.226 313.975,182.954 314.919,192.600 316.471 C 196.923 317.167,216.666 317.168,221.000 316.473 C 222.760 316.191,225.910 315.686,228.000 315.353 C 232.002 314.713,234.216 314.222,236.200 313.535 C 236.860 313.306,237.850 313.034,238.400 312.929 C 238.950 312.825,239.760 312.598,240.200 312.426 C 240.640 312.253,242.620 311.600,244.600 310.974 C 246.580 310.348,249.696 309.152,251.524 308.318 C 253.352 307.483,254.942 306.800,255.058 306.800 C 255.649 306.800,263.678 302.548,267.000 300.476 C 269.991 298.610,275.799 294.696,276.000 294.412 C 276.110 294.256,277.000 293.553,277.978 292.851 C 279.777 291.559,283.398 288.470,286.912 285.230 C 287.968 284.257,288.780 283.247,288.716 282.986 C 288.612 282.559,283.118 278.055,279.000 275.021 C 278.120 274.373,277.310 273.731,277.200 273.594 C 277.090 273.458,275.920 272.550,274.600 271.576 C 273.280 270.601,272.110 269.701,272.000 269.574 C 271.890 269.448,269.010 267.201,265.600 264.582 C 262.190 261.962,259.310 259.724,259.200 259.609 C 259.090 259.493,257.920 258.589,256.600 257.600 C 255.280 256.611,254.110 255.700,254.000 255.574 C 253.890 255.449,252.720 254.550,251.400 253.576 C 250.080 252.601,248.910 251.698,248.800 251.567 C 248.296 250.968,240.629 245.200,240.337 245.200 C 240.156 245.200,238.824 246.010,237.377 247.001 C 226.334 254.562,208.742 258.299,197.254 255.525 C 176.398 250.488,163.163 239.626,155.188 221.000 C 154.231 218.766,152.800 214.245,152.800 213.456 C 152.800 212.963,152.584 212.344,152.320 212.080 C 151.839 211.599,151.465 211.570,149.600 211.869 " stroke="none" fill="#03414d" fill-rule="evenodd"/><path id="path1" d="M196.600 82.795 C 190.850 83.231,183.061 84.516,178.700 85.750 C 177.435 86.107,175.455 86.659,174.300 86.977 C 171.586 87.722,167.725 88.979,166.200 89.613 C 158.438 92.842,156.590 93.676,152.965 95.578 C 148.267 98.043,140.700 102.751,138.800 104.390 C 138.030 105.055,137.278 105.599,137.129 105.599 C 136.979 105.600,136.619 105.825,136.329 106.100 C 136.038 106.375,134.456 107.680,132.813 109.000 C 115.694 122.756,100.715 145.301,94.808 166.200 C 94.621 166.860,94.182 168.390,93.831 169.600 C 93.481 170.810,93.031 172.700,92.832 173.800 C 92.633 174.900,92.348 176.281,92.200 176.868 C 91.828 178.336,92.860 178.627,108.000 181.319 C 109.878 181.653,117.397 183.204,119.000 183.588 C 119.880 183.799,122.220 184.264,124.200 184.622 C 126.180 184.980,129.600 185.634,131.800 186.075 C 136.950 187.108,146.691 189.038,149.894 189.660 C 152.909 190.246,152.643 190.493,153.849 185.975 C 154.391 183.942,155.159 181.542,155.554 180.640 C 155.950 179.738,156.521 178.370,156.822 177.600 C 165.438 155.616,193.383 140.778,216.778 145.765 C 224.955 147.507,237.392 152.999,238.979 155.567 C 239.512 156.429,240.809 155.961,243.470 153.947 C 247.198 151.125,256.089 144.228,259.000 141.899 C 260.320 140.843,261.580 139.845,261.800 139.681 C 263.717 138.253,275.086 129.449,276.859 128.020 C 278.101 127.019,279.481 125.930,279.926 125.600 C 284.465 122.232,289.176 118.476,289.516 117.955 C 290.577 116.333,275.181 103.543,266.200 98.585 C 265.760 98.342,264.320 97.537,263.000 96.796 C 258.233 94.121,252.652 91.530,248.000 89.831 C 246.350 89.229,244.640 88.585,244.200 88.401 C 243.760 88.217,242.950 87.957,242.400 87.823 C 241.850 87.690,240.500 87.326,239.400 87.015 C 231.388 84.752,230.170 84.485,222.949 83.405 C 218.107 82.681,202.791 82.326,196.600 82.795 M220.800 83.951 C 226.832 84.726,233.882 86.033,236.000 86.770 C 236.550 86.961,238.080 87.424,239.400 87.798 C 246.915 89.929,255.776 93.580,262.200 97.192 C 266.182 99.430,267.594 100.282,270.400 102.135 C 273.504 104.185,279.817 108.874,281.640 110.482 C 290.190 118.027,289.822 117.116,285.600 120.298 C 284.390 121.210,281.420 123.508,279.000 125.404 C 276.580 127.301,273.610 129.593,272.400 130.498 C 271.190 131.403,270.110 132.262,270.000 132.407 C 269.890 132.552,268.969 133.284,267.954 134.035 C 266.938 134.786,262.978 137.828,259.154 140.795 C 251.250 146.927,251.728 146.553,248.800 148.885 C 246.786 150.489,242.972 153.412,241.159 154.742 C 240.506 155.221,240.103 155.084,237.710 153.570 C 232.240 150.110,226.893 147.616,222.400 146.428 C 221.410 146.166,219.700 145.704,218.600 145.403 C 209.533 142.915,196.046 144.051,186.200 148.132 C 182.554 149.644,175.475 153.518,174.800 154.373 C 174.690 154.512,173.835 155.179,172.900 155.855 C 167.272 159.925,160.484 168.231,157.092 175.200 C 155.235 179.015,152.800 185.799,152.800 187.159 C 152.800 188.188,151.797 189.163,150.907 188.998 C 141.799 187.318,136.641 186.315,132.400 185.399 C 130.970 185.090,128.810 184.654,127.600 184.430 C 126.390 184.206,124.050 183.764,122.400 183.447 C 120.750 183.130,118.230 182.665,116.800 182.413 C 115.370 182.161,113.210 181.704,112.000 181.397 C 110.790 181.091,107.280 180.379,104.200 179.816 C 101.120 179.252,97.832 178.613,96.894 178.396 C 95.956 178.178,94.741 178.000,94.194 178.000 C 92.701 178.000,92.749 177.382,94.933 168.600 C 95.261 167.280,96.282 164.130,97.202 161.600 C 98.122 159.070,99.026 156.500,99.212 155.889 C 101.112 149.647,111.345 132.537,117.566 125.200 C 121.649 120.385,126.216 115.807,132.939 109.787 C 147.638 96.626,172.439 86.075,193.600 83.981 C 196.130 83.731,198.290 83.437,198.400 83.328 C 198.750 82.982,217.262 83.496,220.800 83.951 M146.800 211.446 C 145.370 211.760,143.210 212.209,142.000 212.444 C 140.790 212.679,138.720 213.113,137.400 213.407 C 134.673 214.017,132.955 214.344,124.800 215.809 C 121.610 216.382,117.830 217.116,116.400 217.441 C 112.883 218.241,111.176 218.578,104.400 219.808 C 91.415 222.165,91.725 222.029,92.435 225.054 C 93.612 230.072,94.852 234.536,96.033 238.000 C 98.319 244.706,101.606 252.136,104.793 257.800 C 105.536 259.120,106.338 260.560,106.575 261.000 C 107.520 262.750,112.738 270.340,114.550 272.600 C 132.831 295.402,154.383 309.050,182.400 315.568 C 192.150 317.836,208.345 318.650,219.200 317.416 C 227.944 316.423,231.128 315.792,239.400 313.413 C 240.500 313.097,242.300 312.586,243.400 312.278 C 249.742 310.503,261.719 304.747,269.600 299.687 C 275.596 295.837,281.292 291.427,285.729 287.200 C 287.230 285.770,288.715 284.456,289.029 284.280 C 290.522 283.444,289.344 281.883,284.600 278.412 C 283.280 277.446,282.110 276.538,282.000 276.393 C 281.890 276.248,280.968 275.516,279.951 274.765 C 277.680 273.088,269.475 266.715,269.200 266.414 C 269.090 266.294,267.920 265.399,266.600 264.424 C 265.280 263.450,264.110 262.539,264.000 262.399 C 263.890 262.259,262.743 261.347,261.451 260.372 C 254.878 255.415,246.300 248.758,246.000 248.382 C 245.576 247.850,240.621 244.400,240.282 244.400 C 240.085 244.400,238.456 245.369,236.662 246.552 C 231.723 249.811,226.826 251.971,219.800 253.989 C 200.622 259.497,176.425 251.031,163.743 234.376 C 160.609 230.259,156.400 223.032,156.400 221.766 C 156.400 221.651,156.035 220.756,155.590 219.777 C 155.144 218.798,154.362 216.423,153.852 214.499 L 152.925 211.000 151.163 210.938 C 150.193 210.903,148.230 211.132,146.800 211.446 M152.320 212.080 C 152.584 212.344,152.800 212.963,152.800 213.456 C 152.800 214.245,154.231 218.766,155.188 221.000 C 163.163 239.626,176.398 250.488,197.254 255.525 C 208.742 258.299,226.334 254.562,237.377 247.001 C 238.824 246.010,240.156 245.200,240.337 245.200 C 240.629 245.200,248.296 250.968,248.800 251.567 C 248.910 251.698,250.080 252.601,251.400 253.576 C 252.720 254.550,253.890 255.449,254.000 255.574 C 254.110 255.700,255.280 256.611,256.600 257.600 C 257.920 258.589,259.090 259.493,259.200 259.609 C 259.310 259.724,262.190 261.962,265.600 264.582 C 269.010 267.201,271.890 269.448,272.000 269.574 C 272.110 269.701,273.280 270.601,274.600 271.576 C 275.920 272.550,277.090 273.458,277.200 273.594 C 277.310 273.731,278.120 274.373,279.000 275.021 C 283.118 278.055,288.612 282.559,288.716 282.986 C 288.780 283.247,287.968 284.257,286.912 285.230 C 283.398 288.470,279.777 291.559,277.978 292.851 C 277.000 293.553,276.110 294.256,276.000 294.412 C 275.799 294.696,269.991 298.610,267.000 300.476 C 263.678 302.548,255.649 306.800,255.058 306.800 C 254.942 306.800,253.352 307.483,251.524 308.318 C 249.696 309.152,246.580 310.348,244.600 310.974 C 242.620 311.600,240.640 312.253,240.200 312.426 C 239.760 312.598,238.950 312.825,238.400 312.929 C 237.850 313.034,236.860 313.306,236.200 313.535 C 234.216 314.222,232.002 314.713,228.000 315.353 C 225.910 315.686,222.760 316.191,221.000 316.473 C 216.666 317.168,196.923 317.167,192.600 316.471 C 182.954 314.919,178.226 313.975,176.251 313.207 C 175.783 313.026,173.780 312.400,171.800 311.818 C 163.260 309.305,152.159 304.088,144.200 298.845 C 142.660 297.831,141.220 296.929,141.000 296.840 C 140.780 296.752,140.510 296.559,140.400 296.412 C 140.290 296.265,139.120 295.361,137.800 294.404 C 134.004 291.652,129.224 287.535,125.444 283.760 C 109.395 267.739,98.489 248.080,93.610 226.380 C 92.837 222.944,92.991 222.672,96.004 222.149 C 102.010 221.106,108.745 219.827,111.600 219.188 C 113.664 218.726,117.056 218.064,125.000 216.570 C 133.008 215.065,133.377 214.993,137.800 214.091 C 143.681 212.892,149.820 211.778,151.220 211.654 C 151.561 211.625,152.056 211.816,152.320 212.080 " stroke="none" fill="#ffffff" fill-rule="evenodd"/></g></svg>