<svg id="svg" xmlns="http://www.w3.org/2000/svg" xmlns:xlink="http://www.w3.org/1999/xlink" version="1.1" viewBox="46.47 46.42 306.97 307"><g id="svgg"><path id="path0" d="M85.044 46.820 C 83.968 47.001,82.225 47.521,81.170 47.975 C 80.115 48.429,78.941 48.800,78.561 48.800 C 78.181 48.800,77.134 49.227,76.235 49.749 C 75.336 50.271,74.180 50.828,73.666 50.987 C 68.093 52.710,56.534 63.385,52.850 70.209 C 52.378 71.084,51.832 72.070,51.636 72.400 C 50.618 74.119,49.056 77.613,48.596 79.200 C 48.309 80.190,47.743 81.810,47.337 82.800 C 46.185 85.613,46.185 314.387,47.337 317.200 C 47.743 318.190,48.321 319.868,48.622 320.928 C 48.923 321.988,49.536 323.450,49.985 324.175 C 50.433 324.901,50.800 325.716,50.800 325.987 C 50.800 329.801,63.622 343.798,70.400 347.383 C 74.720 349.668,78.113 351.185,79.466 351.437 C 80.310 351.594,81.720 352.100,82.600 352.561 L 84.200 353.400 200.000 353.400 L 315.800 353.400 317.800 352.519 C 318.900 352.035,320.520 351.455,321.400 351.231 C 332.616 348.372,348.372 332.616,351.231 321.400 C 351.455 320.520,352.035 318.900,352.519 317.800 L 353.400 315.800 353.400 200.000 L 353.400 84.200 352.561 82.600 C 352.100 81.720,351.594 80.310,351.437 79.466 C 351.185 78.113,349.668 74.720,347.383 70.400 C 343.798 63.622,329.801 50.800,325.987 50.800 C 325.716 50.800,324.901 50.433,324.175 49.985 C 323.450 49.536,321.988 48.923,320.928 48.622 C 319.868 48.321,318.190 47.743,317.200 47.337 C 315.254 46.540,89.678 46.037,85.044 46.820 M310.968 81.023 C 314.772 82.829,317.178 85.243,319.000 89.081 L 320.400 92.031 320.400 200.174 L 320.400 308.318 318.900 311.259 C 316.951 315.080,314.893 317.100,310.979 319.031 L 307.800 320.600 200.000 320.600 L 92.200 320.600 89.166 319.100 C 85.221 317.150,82.819 314.751,81.023 310.968 L 79.600 307.969 79.600 199.946 C 79.600 107.299,79.681 91.772,80.169 90.862 C 80.482 90.278,81.107 88.988,81.559 87.995 C 82.707 85.470,85.804 82.573,89.048 80.990 L 91.800 79.648 199.885 79.624 L 307.969 79.600 310.968 81.023 M123.200 104.779 C 122.210 104.965,120.474 105.586,119.342 106.159 C 118.210 106.731,117.163 107.200,117.015 107.200 C 115.622 107.200,107.200 115.593,107.200 116.982 C 107.200 117.101,106.643 118.378,105.961 119.819 C 100.841 130.658,106.737 146.062,118.203 151.800 L 121.400 153.400 129.400 153.396 L 137.400 153.393 140.200 151.863 C 145.880 148.760,148.760 145.880,151.863 140.200 L 153.393 137.400 153.396 129.400 L 153.400 121.400 151.838 118.400 C 146.156 107.487,135.576 102.455,123.200 104.779 M113.514 162.812 C 110.620 163.300,107.114 166.150,105.165 169.600 C 104.234 171.248,104.328 287.306,105.262 289.000 C 106.138 290.589,109.405 293.869,110.960 294.721 C 112.674 295.660,145.556 295.764,147.200 294.835 C 149.057 293.786,151.158 291.904,152.282 290.282 L 153.400 288.669 153.520 231.034 C 153.586 199.335,153.528 172.457,153.392 171.304 C 152.971 167.751,148.449 163.411,144.488 162.759 C 142.029 162.354,115.967 162.399,113.514 162.812 M171.926 162.797 C 168.767 163.352,165.078 166.427,163.305 169.984 C 162.142 172.320,162.221 286.235,163.388 288.589 C 164.788 291.413,168.498 294.676,170.907 295.204 C 174.514 295.994,204.275 295.583,205.800 294.723 C 208.671 293.102,210.400 291.072,211.697 287.800 L 212.965 284.600 213.183 250.000 L 213.400 215.400 214.953 213.000 C 223.088 200.427,242.281 202.791,244.849 216.682 C 245.067 217.863,245.506 219.566,245.823 220.465 C 246.307 221.837,246.402 227.271,246.410 254.150 C 246.421 291.945,246.203 290.238,251.488 293.878 L 253.697 295.400 270.749 295.400 C 286.712 295.400,287.889 295.352,289.188 294.644 C 291.356 293.464,294.740 289.710,295.210 287.964 C 296.031 284.914,295.535 205.647,294.685 204.090 C 294.291 203.370,293.780 201.757,293.549 200.508 C 293.318 199.258,292.799 197.597,292.396 196.818 C 291.994 196.038,291.071 194.140,290.346 192.600 C 286.945 185.370,280.453 177.695,273.600 172.801 C 269.799 170.087,264.044 166.800,263.093 166.800 C 262.815 166.800,261.905 166.434,261.071 165.987 C 260.236 165.539,258.349 164.926,256.877 164.623 C 255.405 164.320,253.390 163.752,252.400 163.361 C 249.146 162.075,233.954 162.321,229.888 163.725 C 228.176 164.316,226.376 164.802,225.888 164.804 C 225.399 164.806,224.100 165.250,223.000 165.791 C 221.900 166.332,220.730 166.792,220.400 166.813 C 219.884 166.845,217.228 168.219,213.092 170.593 L 211.984 171.229 211.241 169.496 C 210.416 167.572,206.992 164.247,204.800 163.243 C 203.228 162.522,175.624 162.148,171.926 162.797 " stroke="none" fill="#04444c" fill-rule="evenodd"/><path id="path1" d="" stroke="none" fill="#08444c" fill-rule="evenodd"/></g></svg>